inDegrees=no
num_controls=7
num_derivatives=13
num_iterations=122
num_multipliers=7
num_parameters=0
num_slacks=7
num_states=26
objective=0.497095
objective_accelerations=0.032360
objective_balance=0.003268
objective_effort=0.035065
objective_height=0.420909
objective_ligament=0.005494
solver_duration=1345.364716
status=Solve_Succeeded
success=true
DataType=double
version=3
OpenSimVersion=4.5
endheader
time	/jointset/ground_pelvis/pelvis_tilt/value	/jointset/ground_pelvis/pelvis_tx/value	/jointset/ground_pelvis/pelvis_ty/value	/jointset/hip_r/hip_flexion_r/value	/jointset/hip_r/hip_adduction_r/value	/jointset/hip_r/hip_rotation_r/value	/jointset/back/lumbar_extension/value	/jointset/patellofemoral_r/patellar_flexion_r/value	/jointset/knee_r/knee_flexion_r/value	/jointset/knee_r/knee_adduction_r/value	/jointset/knee_r/knee_rotation_r/value	/jointset/ankle_r/ankle_angle_r/value	/jointset/subtalar_r/subtalar_angle_r/value	/jointset/ground_pelvis/pelvis_tilt/speed	/jointset/ground_pelvis/pelvis_tx/speed	/jointset/ground_pelvis/pelvis_ty/speed	/jointset/hip_r/hip_flexion_r/speed	/jointset/hip_r/hip_adduction_r/speed	/jointset/hip_r/hip_rotation_r/speed	/jointset/back/lumbar_extension/speed	/jointset/patellofemoral_r/patellar_flexion_r/speed	/jointset/knee_r/knee_flexion_r/speed	/jointset/knee_r/knee_adduction_r/speed	/jointset/knee_r/knee_rotation_r/speed	/jointset/ankle_r/ankle_angle_r/speed	/jointset/subtalar_r/subtalar_angle_r/speed	/forceset/tau_hip_flexion_r	/forceset/tau_hip_adduction_r	/forceset/tau_hip_rotation_r	/forceset/tau_knee_flexion_r	/forceset/tau_ankle_angle_r	/forceset/tau_subtalar_angle_r	/forceset/tau_lumbar_extension	lambda_cid13_p0	lambda_cid14_p0	lambda_cid14_p1	lambda_cid14_p2	lambda_cid14_p3	lambda_cid14_p4	lambda_cid14_p5	/jointset/ground_pelvis/pelvis_tilt/accel	/jointset/ground_pelvis/pelvis_tx/accel	/jointset/ground_pelvis/pelvis_ty/accel	/jointset/hip_r/hip_flexion_r/accel	/jointset/hip_r/hip_adduction_r/accel	/jointset/hip_r/hip_rotation_r/accel	/jointset/back/lumbar_extension/accel	/jointset/patellofemoral_r/patellar_flexion_r/accel	/jointset/knee_r/knee_flexion_r/accel	/jointset/knee_r/knee_adduction_r/accel	/jointset/knee_r/knee_rotation_r/accel	/jointset/ankle_r/ankle_angle_r/accel	/jointset/subtalar_r/subtalar_angle_r/accel	gamma_cid13_p0	gamma_cid14_p0	gamma_cid14_p1	gamma_cid14_p2	gamma_cid14_p3	gamma_cid14_p4	gamma_cid14_p5
0.5	-0.09816002755995172	0.05176022506915599	0.8633950331425767	0.6936368573101857	-0.2302869547770121	-0.1329456648728911	-0.3174008807952497	0.6883177453163396	0.6883177453164814	0.04175340828529538	0.1745119632079625	0.2637149855606195	0.05644420287129737	-0.2635410431428953	-0.08946135261448057	-0.3268128494776928	1.40670534972155	-0.008541722093660721	0.2571739185431864	-0.6007860742545266	1.665275047508951	1.665275047508701	-0.2772616742039453	-4.972731503944871e-05	0.611345920079321	0.1630605764995975	-0.07511553686216826	-0.01879479383016736	0.00830564682161722	-0.3398585929374481	0.06278746910256333	-0.01012698168891117	0.1351422768418364	-31.99566923057971	-22.0466673232873	-4.321508669151965	-3.347896059920427	3.507159222934606	-670.6816863968339	60.03358493588512	0.05994396325841918	0.2779294442274231	-0.3449910660676747	-0.8567170437392826	-0.05096350382146048	-0.5604517356100397	1.306636876261325	-1.141008471141119	-1.141008471141105	0.3836764728394146	0.008365038238298639	-0.4739914398281734	-0.06340695408673364	-1.096260888328462e-07	-1.551317573768525e-07	5.472562400753154e-07	-1.220887848659412e-06	3.703928837774384e-08	-2.099590684689613e-07	8.4626011052787e-07
0.51	-0.1007919807090092	0.05087961122327732	0.8601103838609742	0.7076588346992412	-0.2303757009815625	-0.1304006988612216	-0.3233427130154531	0.7049109099703734	0.7049109099704354	0.0390024881009716	0.1745117339868977	0.2698035766970238	0.05807020694582908	-0.2628123762696505	-0.08665297334069852	-0.3300429830330973	1.397495268328161	-0.009213966826415414	0.2518507206924586	-0.5875023009185503	1.653120472162683	1.653120472162527	-0.2728670521250678	-1.54874270314501e-05	0.6062834537752703	0.16210104308811	-0.08043957108476825	-0.01693485134739069	0.00896386881451139	-0.3425388254203395	0.05833271857405851	-0.009534564228223141	0.1400187758810346	-31.04712247804638	-23.6182840530486	-4.45679218922988	-3.192238290375142	4.158194903332261	-673.8603425407872	59.78374655956719	0.08489711080255019	0.2835669841185809	-0.3009635194721928	-0.9823994765735667	-0.076480791890459	-0.5137194884132904	1.35095789241382	-1.288272635412662	-1.288272635398676	0.4756617018913943	-0.002163792286398633	-0.5357120705515485	-0.1181674778177043	-9.363004219259815e-08	-1.178102080896352e-07	5.842643452044738e-07	-9.390034864812731e-07	1.028409155575718e-08	-1.691468924006958e-07	7.446593553611041e-07
0.52	-0.1034155333770451	0.05002733613316949	0.8567956454399787	0.7215828621164753	-0.2304713948002186	-0.1279080579637807	-0.3291493654362675	0.7213754107571367	0.7213754107571186	0.0362971754627319	0.1745112237134388	0.275838875601416	0.05968542749761832	-0.2618609469386056	-0.08379360146031235	-0.3328306773563218	1.38711535535738	-0.009931244914689731	0.2467088956973654	-0.5737501143766534	1.639542274054691	1.639542274054628	-0.2681401649870118	-0.0001059377937613948	0.6006874736768981	0.1609038719511048	-0.08576360530737516	-0.01507490886461266	0.009622090807395347	-0.3452190579032323	0.05387796804555409	-0.008942146767533079	0.1448952749202264	-30.090434325452	-25.19428438226095	-4.590336698712398	-3.039721438244997	4.796178085552953	-677.1126086214373	59.59672355355134	0.1044964548184223	0.2881279655482402	-0.2565032196316672	-1.090683359217381	-0.05997017492538414	-0.5241771644831169	1.400319517445471	-1.425733023485946	-1.425733023485976	0.4501294846751122	-0.01657301270929075	-0.5806941986924702	-0.1109344991902814	-6.963528949250632e-08	-4.41699146858988e-08	7.328620565401459e-07	-4.009503631788619e-07	-5.310895898086013e-08	-8.064015598119594e-08	6.012789942416188e-07
0.53	-0.106028588148495	0.04920389701174793	0.8534552663845932	0.7353975385982264	-0.2305739921284221	-0.1254677789352834	-0.3348161680256048	0.7376972198716555	0.73769721987165	0.03363873285516842	0.1745101673457509	0.2818158038923819	0.06128823418227153	-0.2607138407602317	-0.08088572897544496	-0.335166991845682	1.375626678970028	-0.01059115082186186	0.2413638603589283	-0.5595458083684877	1.624589349382751	1.624589349382577	-0.2635103957094008	-0.0001162579970327783	0.59461789268995	0.1596244316930422	-0.09081333765115847	-0.01347533643250447	0.01029396157941063	-0.3483425384804869	0.05003166439112895	-0.008451593622351226	0.1495648911239957	-29.12779509868782	-26.58430265512953	-4.741136935423097	-2.878079507136085	5.304530562232919	-680.4374295059733	59.45069997003735	0.1252413165543359	0.2933736859683767	-0.2104811126788448	-1.206949982721131	-0.06939370737847027	-0.5371924023990688	1.440175410856108	-1.564590702600539	-1.564590702617135	0.4752033604118108	0.005092166153054935	-0.6321546935421881	-0.141290295067934	-4.437833877047844e-08	3.715755632929934e-08	9.339276172953071e-07	1.918011548737835e-07	-1.269311686791111e-07	1.137923345145542e-08	4.874532550640657e-07
0.54	-0.1086290871347197	0.04840978797437753	0.850093867074496	0.7490915302752577	-0.2306832670974513	-0.1230804553969446	-0.3403389897011899	0.7538625960367441	0.7538625960367503	0.03102774848260168	0.1745086785140893	0.2877296234445091	0.06287727816315335	-0.2593497898935601	-0.07792758465007692	-0.3370347282986734	1.362978394413598	-0.01126677307964747	0.2361177976654882	-0.5449539316261633	1.608255684168713	1.608255684168428	-0.2586485179874812	-0.0001924305887396245	0.5880657259091536	0.158151331196832	-0.09586306999494862	-0.01187576400039541	0.01096583235142914	-0.3514660190577429	0.04618536073670406	-0.007961040477168072	0.1542345073277586	-28.15994740193246	-27.98034636887226	-4.892067086510863	-2.717473260980196	5.811232457634341	-683.8564681126817	59.33315131896083	0.1478853924779732	0.2981823336483687	-0.1627876123578866	-1.322604993032871	-0.06311344504807709	-0.5043826354837184	1.477833664277217	-1.701881131905479	-1.701881131905469	0.4965511735368217	-0.02974349039638283	-0.6772113574621264	-0.1496665468198259	-1.772491364120216e-08	1.269899898082425e-07	1.193042713578414e-06	8.450700458415828e-07	-2.122920225561908e-07	1.072849623880192e-07	4.063262465456722e-07
0.55	-0.1112150170401147	0.04764546818732251	0.8467161341236163	0.762653624215439	-0.2307988732222586	-0.1207474536770085	-0.3457139367633063	0.7698579584849242	0.7698579584849252	0.02846404716248366	0.1745073241091943	0.2935757413992827	0.06445141050058728	-0.2578034577402745	-0.07493088533991354	-0.3384317966200034	1.349257292867881	-0.01185741131187227	0.2304956743032044	-0.5299816319256274	1.590597317794916	1.590597317794851	-0.2540607214602196	-8.753017660455112e-05	0.5810822218474148	0.1566425094236627	-0.10073396230778	-0.01033936909389647	0.01156488044590822	-0.3546890108946293	0.0425277278891557	-0.007481801344401051	0.1587435857725534	-27.18795691562246	-29.31593671586822	-5.037725498232504	-2.557252006172804	6.295091567289846	-687.2476910500393	59.23643140338764	0.1629301114920197	0.3011850723478158	-0.1161247339954434	-1.424308792394408	-0.05718017667396596	-0.5891021163026605	1.51500545367168	-1.830736903660609	-1.830736903627541	0.4447839457786854	0.02949209560030728	-0.7203037436813384	-0.1560328919816413	-1.493180729249296e-10	1.820081880566179e-07	1.343282736019376e-06	1.241761292013967e-06	-2.639312134671893e-07	1.650154999160744e-07	3.685118471334659e-07
0.5600000000000001	-0.1137844990270293	0.04691126966189864	0.8433268388311284	0.7760730179287516	-0.2309204139622622	-0.1184702681766343	-0.3509375453622715	0.7856701527666585	0.7856701527666553	0.02594720181832802	0.1745067957661361	0.2993497475508086	0.06600954604040626	-0.2560602061974638	-0.07190333232384552	-0.3393471966203339	1.334438349040033	-0.01245369611866899	0.2249545537528424	-0.5146862389958965	1.571622050879368	1.571622050879525	-0.2492773227946443	-2.721822119525224e-05	0.5736433652596128	0.1549519716738471	-0.1056048546206171	-0.008802974187394523	0.01216392854036928	-0.3579120027315167	0.0388700950416084	-0.007002562211629161	0.1632526642173425	-26.21316943364157	-30.65951824597432	-5.186010222368906	-2.395208885831037	6.791141797891975	-690.7593571904571	59.12831882595959	0.1872692703829881	0.3043530748292982	-0.06645394815794277	-1.542173449458965	-0.06424275996245907	-0.4881820730993781	1.542452310116233	-1.965261240255405	-1.96526124025539	0.5356716011995516	-0.03866118174153801	-0.768281862674752	-0.1860097421490798	6.532882022153788e-09	1.952493040283133e-07	1.362872669849768e-06	1.330559364431862e-06	-2.751044088188917e-07	1.769358077539208e-07	3.826725786486827e-07
